<svg width="35" height="35" viewBox="0 0 35 35" fill="none" xmlns="http://www.w3.org/2000/svg">
<path d="M2.27497 2.42183C-0.457851 5.26043 0.101464 8.27581 0.101464 17.4364C0.101464 25.0437 -1.22582 32.6698 5.7207 34.4651C7.88986 35.023 27.1095 35.023 29.2757 34.4622C32.1679 33.716 34.5211 31.37 34.8428 27.2795C34.8877 26.7086 34.8877 8.17438 34.8413 7.59188C34.4994 3.23472 31.8173 0.723599 28.2831 0.214998C27.4731 0.0976288 27.3109 0.0628527 23.1551 0.0556077C8.4144 0.0628527 5.18312 -0.593546 2.27497 2.42183Z" fill="url(#paint0_linear_36_7)"/>
<path d="M17.4866 4.6041C12.2253 4.6041 7.2291 4.13607 5.32076 9.0337C4.5325 11.0565 4.64697 13.6836 4.64697 17.4452C4.64697 20.746 4.5412 23.8483 5.32076 25.8552C7.22475 30.7557 12.2615 30.2862 17.4837 30.2862C22.5219 30.2862 27.7166 30.8108 29.6481 25.8552C30.4378 23.8121 30.3219 21.2242 30.3219 17.4452C30.3219 12.4287 30.5986 9.19019 28.1658 6.75877C25.7025 4.29546 22.3712 4.6041 17.4808 4.6041H17.4866ZM16.3361 6.91816C27.3109 6.90077 28.7077 5.68071 27.9368 22.6297C27.663 28.6242 23.0986 27.9664 17.488 27.9664C7.25808 27.9664 6.96393 27.6737 6.96393 17.4394C6.96393 7.08624 7.77537 6.92395 16.3361 6.91526V6.91816ZM24.3404 9.04964C23.4898 9.04964 22.8001 9.73937 22.8001 10.5899C22.8001 11.4405 23.4898 12.1302 24.3404 12.1302C25.191 12.1302 25.8807 11.4405 25.8807 10.5899C25.8807 9.73937 25.191 9.04964 24.3404 9.04964ZM17.4866 10.8508C13.8453 10.8508 10.8936 13.8038 10.8936 17.4452C10.8936 21.0865 13.8453 24.0381 17.4866 24.0381C21.1279 24.0381 24.0781 21.0865 24.0781 17.4452C24.0781 13.8038 21.1279 10.8508 17.4866 10.8508ZM17.4866 13.1648C23.145 13.1648 23.1522 21.7255 17.4866 21.7255C11.8297 21.7255 11.821 13.1648 17.4866 13.1648Z" fill="white"/>
<defs>
<linearGradient id="paint0_linear_36_7" x1="2.34165" y1="32.6105" x2="34.6624" y2="4.63733" gradientUnits="userSpaceOnUse">
<stop stop-color="#FFDD55"/>
<stop offset="0.5" stop-color="#FF543E"/>
<stop offset="1" stop-color="#C837AB"/>
</linearGradient>
</defs>
</svg>
