<svg width="12" height="12" viewBox="0 0 12 12" fill="none" xmlns="http://www.w3.org/2000/svg">
<path opacity="0.7" fill-rule="evenodd" clip-rule="evenodd" d="M5.50519 1.15906C4.3525 1.15906 3.24703 1.61699 2.43196 2.43211C1.61689 3.24723 1.15899 4.35277 1.15899 5.50552C1.15899 6.65828 1.61689 7.76382 2.43196 8.57894C3.24703 9.39406 4.3525 9.85199 5.50519 9.85199C6.65787 9.85199 7.76335 9.39406 8.57842 8.57894C9.39349 7.76382 9.85139 6.65828 9.85139 5.50552C9.85139 4.35277 9.39349 3.24723 8.57842 2.43211C7.76335 1.61699 6.65787 1.15906 5.50519 1.15906ZM1.61243 1.61253C2.64486 0.580045 4.04512 0 5.50519 0C6.96526 0 8.36552 0.580045 9.39794 1.61253C10.4304 2.64502 11.0104 4.04537 11.0104 5.50552C11.0104 6.77026 10.5752 7.99012 9.78786 8.96493L12 11.1812L11.1797 12L8.96875 9.78493C7.99327 10.5746 6.77173 11.011 5.50519 11.011C4.04512 11.011 2.64486 10.431 1.61243 9.39852C0.580009 8.36603 0 6.96568 0 5.50552C0 4.04537 0.580009 2.64502 1.61243 1.61253Z" fill="white"/>
</svg>
