<svg width="24" height="32" viewBox="0 0 24 32" fill="none" xmlns="http://www.w3.org/2000/svg">
<path opacity="0.5" d="M5.22598 2.66072e-07C6.48798 -0.00150834 7.712 0.43162 8.6922 1.22655L22.2904 12.4521C22.8237 12.8767 23.2543 13.416 23.5503 14.03C23.8463 14.644 24 15.3168 24 15.9984C24 16.6801 23.8463 17.3529 23.5503 17.9669C23.2543 18.5809 22.8237 19.1202 22.2904 19.5448L8.69219 30.7703C7.87355 31.4263 6.88711 31.8391 5.84528 31.9616C4.80346 32.0842 3.74815 31.9116 2.79963 31.4636C1.97528 31.1002 1.27294 30.5072 0.776491 29.7555C0.280049 29.0037 0.0104869 28.1249 4.1753e-07 27.224L2.38027e-06 4.77287C0.0104891 3.87201 0.280051 2.99321 0.776494 2.24143C1.27294 1.48965 1.97528 0.896662 2.79964 0.533283C3.56185 0.186657 4.38867 0.00492878 5.22598 2.66072e-07ZM18.1843 15.9984L5.33264 5.33282L5.33263 26.4241L18.1843 15.9984Z" fill="white"/>
</svg>
