<svg width="24" height="32" viewBox="0 0 24 32" fill="none" xmlns="http://www.w3.org/2000/svg">
<path opacity="0.5" d="M18.774 32C17.512 32.0015 16.288 31.5684 15.3078 30.7735L1.70959 19.5479C1.17634 19.1233 0.745696 18.584 0.449705 17.97C0.153715 17.356 0 16.6832 0 16.0016C0 15.3199 0.153715 14.6471 0.449705 14.0331C0.745696 13.4191 1.17634 12.8798 1.70959 12.4552L15.3078 1.22966C16.1264 0.573709 17.1129 0.160928 18.1547 0.0383561C19.1965 -0.0842157 20.2518 0.0883519 21.2004 0.536395C22.0247 0.899772 22.7271 1.49276 23.2235 2.24455C23.72 2.99633 23.9895 3.87513 24 4.77598V27.2271C23.9895 28.128 23.72 29.0068 23.2235 29.7586C22.7271 30.5104 22.0247 31.1033 21.2004 31.4667C20.4382 31.8133 19.6113 31.9951 18.774 32ZM5.81572 16.0016L18.6674 26.6672V5.57591L5.81572 16.0016Z" fill="white"/>
</svg>
