<svg width="21" height="18" viewBox="0 0 21 18" fill="none" xmlns="http://www.w3.org/2000/svg">
<path fill-rule="evenodd" clip-rule="evenodd" d="M7.72451 0.0619419C7.63596 0.104997 6.82726 1.06093 5.18782 3.06044L2.78115 5.99576H1.63501C0.567328 5.99576 0.477832 6.00128 0.327059 6.07631C0.039334 6.21952 0 6.35425 0 7.19618C0 8.03812 0.039334 8.17285 0.327059 8.31606C0.487963 8.39613 0.547559 8.39661 10.5 8.39661C20.4524 8.39661 20.512 8.39613 20.6729 8.31606C20.9607 8.17285 21 8.03812 21 7.19618C21 6.35425 20.9607 6.21952 20.6729 6.07631C20.5222 6.00128 20.4327 5.99576 19.365 5.99576H18.2189L15.8124 3.06068C14.0059 0.857463 13.3705 0.109158 13.264 0.059621C12.7532 -0.178023 12.1959 0.357926 12.4519 0.840737C12.4877 0.908321 13.4382 2.08666 14.5642 3.45926C15.6901 4.83187 16.6113 5.96411 16.6113 5.97535C16.6113 5.98656 13.8612 5.99576 10.5 5.99576C7.13877 5.99576 4.38867 5.98656 4.38867 5.97535C4.38867 5.96411 5.30988 4.83187 6.43584 3.45926C7.5618 2.08666 8.51234 0.908321 8.54815 0.840737C8.80532 0.355566 8.23323 -0.185345 7.72451 0.0619419ZM1.39453 9.61752C1.39453 9.69939 3.70908 17.5362 3.77233 17.6684C3.82864 17.7862 3.90235 17.8617 4.01666 17.9185C4.1792 17.9994 4.2242 18 10.5 18C16.7758 18 16.8208 17.9994 16.9833 17.9185C17.0977 17.8617 17.1714 17.7862 17.2277 17.6684C17.2909 17.5362 19.6055 9.69939 19.6055 9.61752C19.6055 9.60623 15.508 9.59703 10.5 9.59703C5.49199 9.59703 1.39453 9.60623 1.39453 9.61752ZM6.84403 10.9073C6.9035 10.9505 6.98361 11.0383 7.02204 11.1023C7.09845 11.2295 7.71094 14.7051 7.71094 15.0114C7.71094 15.604 6.90396 15.8086 6.59515 15.2943C6.51874 15.1671 5.90625 11.6915 5.90625 11.3852C5.90625 10.9249 6.47186 10.6367 6.84403 10.9073ZM10.7882 10.878C10.8924 10.9299 10.9795 11.0149 11.0327 11.1165C11.112 11.2683 11.1152 11.3491 11.1152 13.1983C11.1152 15.0475 11.112 15.1283 11.0327 15.2801C10.9398 15.4576 10.7035 15.5992 10.5 15.5992C10.2965 15.5992 10.0602 15.4576 9.96733 15.2801C9.88788 15.1281 9.88485 15.0493 9.88649 13.1899C9.88842 11.0161 9.87993 11.0793 10.1962 10.8925C10.3926 10.7765 10.5753 10.772 10.7882 10.878ZM14.8058 10.8676C15.0057 10.9656 15.1348 11.1686 15.1348 11.3852C15.1348 11.6915 14.5223 15.1671 14.4459 15.2943C14.1371 15.8086 13.3301 15.604 13.3301 15.0114C13.3301 14.7538 13.9373 11.2489 14.0036 11.1238C14.1594 10.8297 14.5041 10.7196 14.8058 10.8676Z" fill="black"/>
</svg>
