<svg width="36" height="35" viewBox="0 0 36 35" fill="none" xmlns="http://www.w3.org/2000/svg">
<path d="M0.876282 16.7708C0.876282 8.86499 0.876282 4.91206 3.32411 2.45603C5.77194 0 9.71168 0 17.5911 0H19.0446C26.924 0 30.8638 0 33.3116 2.45603C35.7594 4.91206 35.7594 8.86499 35.7594 16.7708V18.2292C35.7594 26.135 35.7594 30.088 33.3116 32.5439C30.8638 35 26.924 35 19.0446 35H17.5911C9.71168 35 5.77194 35 3.32411 32.5439C0.876282 30.088 0.876282 26.135 0.876282 18.2292L0.876282 16.7708Z" fill="#2787F5"/>
<path fill-rule="evenodd" clip-rule="evenodd" d="M10.3242 10.9375H7.78007C7.05317 10.9375 6.90778 11.2807 6.90778 11.6592C6.90778 12.3352 7.77031 15.6878 10.9238 20.122C13.0262 23.1501 15.9882 24.7916 18.6836 24.7916C20.3008 24.7916 20.5009 24.427 20.5009 23.7991V21.5104C20.5009 20.7812 20.6541 20.6357 21.1661 20.6357C21.5435 20.6357 22.1904 20.825 23.6998 22.285C25.4248 24.0153 25.7092 24.7916 26.6795 24.7916H29.2236C29.9506 24.7916 30.314 24.427 30.1043 23.7076C29.8749 22.9905 29.0513 21.9501 27.9585 20.7168C27.3654 20.0138 26.476 19.2568 26.2064 18.8782C25.8291 18.3916 25.9369 18.1752 26.2064 17.7427C26.2064 17.7427 29.3061 13.3626 29.6296 11.8756C29.7913 11.3348 29.6296 10.9375 28.8602 10.9375H26.316C25.6692 10.9375 25.3709 11.2807 25.2092 11.6592C25.2092 11.6592 23.9154 14.8226 22.0826 16.8775C21.4896 17.4722 21.22 17.6615 20.8966 17.6615C20.7349 17.6615 20.5008 17.4722 20.5008 16.9316V11.8756C20.5008 11.2266 20.3131 10.9375 19.7739 10.9375H15.7759C15.3717 10.9375 15.1286 11.2386 15.1286 11.5241C15.1286 12.1392 16.045 12.2811 16.1395 14.0115V17.7697C16.1395 18.5937 15.9911 18.7431 15.6677 18.7431C14.8052 18.7431 12.7072 15.5655 11.4629 11.9296C11.219 11.2229 10.9744 10.9375 10.3242 10.9375Z" fill="white"/>
</svg>
